<svg xmlns="http://www.w3.org/2000/svg" xmlns:xlink="http://www.w3.org/1999/xlink" viewBox="0,0,256,256" width="64px" height="64px"><g fill="#fffc11" fill-rule="nonzero" stroke="none" stroke-width="1" stroke-linecap="butt" stroke-linejoin="miter" stroke-miterlimit="10" stroke-dasharray="" stroke-dashoffset="0" font-family="none" font-weight="none" font-size="none" text-anchor="none" style="mix-blend-mode: normal"><g transform="scale(4,4)"><path d="M32,3c-0.25575,0 -0.51153,0.09747 -0.70703,0.29297l-18.06445,18.06445c-0.391,0.391 -0.391,1.02306 0,1.41406l6.77539,6.77539c0.391,0.391 1.02306,0.391 1.41406,0l10.58203,-10.58398l10.58203,10.58398c0.195,0.195 0.45103,0.29297 0.70703,0.29297c0.256,0 0.51203,-0.09892 0.70703,-0.29492l6.77539,-6.77344c0.391,-0.391 0.391,-1.02306 0,-1.41406l-18.06445,-18.06445c-0.1955,-0.1955 -0.45128,-0.29297 -0.70703,-0.29297zM32,5.41406l16.65039,16.65039l-5.36133,5.36133l-10.58203,-10.58398c-0.195,-0.195 -0.45103,-0.29297 -0.70703,-0.29297c-0.256,0 -0.51203,0.09797 -0.70703,0.29297l-10.58203,10.58203l-5.36133,-5.35937zM32,22.87109c-0.25575,0 -0.51153,0.09747 -0.70703,0.29297l-8.12891,8.12891c-0.391,0.391 -0.391,1.02306 0,1.41406l8.12891,8.12891c0.195,0.195 0.45103,0.29297 0.70703,0.29297c0.256,0 0.51203,-0.09797 0.70703,-0.29297l8.12891,-8.12891c0.391,-0.391 0.391,-1.02306 0,-1.41406l-8.12891,-8.12891c-0.1955,-0.1955 -0.45128,-0.29297 -0.70703,-0.29297zM10.77344,24.22656c-0.25575,0 -0.51153,0.09747 -0.70703,0.29297l-6.77344,6.77344c-0.391,0.391 -0.391,1.02306 0,1.41406l6.77344,6.77344c0.195,0.195 0.45103,0.29297 0.70703,0.29297c0.256,0 0.51203,-0.09697 0.70703,-0.29297l6.77539,-6.77344c0.391,-0.391 0.391,-1.02306 0,-1.41406l-6.77539,-6.77344c-0.1955,-0.1955 -0.45128,-0.29297 -0.70703,-0.29297zM53.22656,24.22656c-0.25575,0 -0.51153,0.09747 -0.70703,0.29297l-6.77539,6.77344c-0.391,0.391 -0.391,1.02306 0,1.41406l6.77539,6.77344c0.195,0.195 0.45103,0.29297 0.70703,0.29297c0.255,0 0.51103,-0.09697 0.70703,-0.29297l6.77344,-6.77344c0.391,-0.391 0.391,-1.02306 0,-1.41406l-6.77344,-6.77344c-0.1955,-0.1955 -0.45128,-0.29297 -0.70703,-0.29297zM32,25.28516l6.71484,6.71484l-6.71484,6.71484l-6.71484,-6.71484zM10.77344,26.64063l5.36133,5.35938l-5.36133,5.35938l-5.35938,-5.35937zM53.22461,26.64063l5.36133,5.35938l-5.36133,5.35938l-5.35937,-5.35937zM43.28906,34.16016c-0.25575,0 -0.51153,0.09747 -0.70703,0.29297l-10.58203,10.58398l-10.58203,-10.58203c-0.391,-0.391 -1.02306,-0.391 -1.41406,0l-6.77539,6.77344c-0.391,0.391 -0.391,1.02306 0,1.41406l18.06445,18.06445c0.195,0.195 0.45103,0.29297 0.70703,0.29297c0.256,0 0.51203,-0.09797 0.70703,-0.29297l18.06445,-18.06445c0.391,-0.391 0.391,-1.02306 0,-1.41406l-6.77539,-6.77539c-0.1955,-0.1955 -0.45128,-0.29297 -0.70703,-0.29297zM20.71094,36.57422l10.58203,10.58398c0.391,0.391 1.02306,0.391 1.41406,0l10.58203,-10.58203l5.36133,5.35938l-16.65039,16.65039l-16.65039,-16.65039zM12.16992,44.6875c-0.25575,0 -0.51153,0.09747 -0.70703,0.29297l-1.41406,1.41406c-0.391,0.391 -0.391,1.02306 0,1.41406c0.391,0.391 1.02306,0.391 1.41406,0l1.41406,-1.41406c0.391,-0.391 0.391,-1.02306 0,-1.41406c-0.1955,-0.1955 -0.45128,-0.29297 -0.70703,-0.29297zM15.70508,48.22461c-0.25575,0 -0.51153,0.09747 -0.70703,0.29297l-1.41406,1.41406c-0.391,0.391 -0.391,1.02306 0,1.41406c0.391,0.391 1.02306,0.391 1.41406,0l1.41406,-1.41406c0.391,-0.391 0.391,-1.02306 0,-1.41406c-0.1955,-0.1955 -0.45128,-0.29297 -0.70703,-0.29297zM19.24023,51.75781c-0.25575,0 -0.51153,0.09942 -0.70703,0.29492l-1.41406,1.41406c-0.391,0.391 -0.391,1.02306 0,1.41406c0.391,0.391 1.02306,0.391 1.41406,0l1.41406,-1.41406c0.391,-0.391 0.391,-1.02306 0,-1.41406c-0.1955,-0.1955 -0.45128,-0.29492 -0.70703,-0.29492zM22.77539,55.29492c-0.25575,0 -0.51153,0.09747 -0.70703,0.29297l-1.41406,1.41406c-0.391,0.391 -0.391,1.02306 0,1.41406c0.391,0.391 1.02306,0.391 1.41406,0l1.41406,-1.41406c0.391,-0.391 0.391,-1.02306 0,-1.41406c-0.1955,-0.1955 -0.45128,-0.29297 -0.70703,-0.29297zM26.3125,58.83008c-0.25575,0 -0.51153,0.09747 -0.70703,0.29297l-1.41406,1.41406c-0.391,0.391 -0.391,1.02306 0,1.41406c0.391,0.391 1.02306,0.391 1.41406,0l1.41406,-1.41406c0.391,-0.391 0.391,-1.02306 0,-1.41406c-0.1955,-0.1955 -0.45128,-0.29297 -0.70703,-0.29297z"></path></g></g></svg>