<svg xmlns="http://www.w3.org/2000/svg" xmlns:xlink="http://www.w3.org/1999/xlink" viewBox="0,0,256,256" width="48px" height="48px"><defs><linearGradient x1="10.151" y1="10.232" x2="31.349" y2="31.43" gradientUnits="userSpaceOnUse" id="color-1"><stop offset="0" stop-color="#ffc430"></stop><stop offset="0.41" stop-color="#fec130"></stop><stop offset="0.72" stop-color="#fcb730"></stop><stop offset="0.998" stop-color="#f7a72f"></stop><stop offset="1" stop-color="#f7a72f"></stop></linearGradient></defs><g fill="none" fill-rule="nonzero" stroke="none" stroke-width="1" stroke-linecap="butt" stroke-linejoin="miter" stroke-miterlimit="10" stroke-dasharray="" stroke-dashoffset="0" font-family="none" font-weight="none" font-size="none" text-anchor="none" style="mix-blend-mode: normal"><g transform="scale(5.33333,5.33333)"><path d="M44.041,24.122c0,11.045 -8.955,20 -20,20c-11.045,0 -20,-8.955 -20,-20c0,-11.045 8.955,-20 20,-20c11.045,0 20,8.955 20,20z" fill="url(#color-1)"></path><path d="M17.587,36.046c-0.643,0 -1.229,-0.297 -1.609,-0.814c-0.381,-0.516 -0.491,-1.164 -0.301,-1.777l1.977,-6.394l-2.432,0.868c-0.274,0.092 -0.481,0.129 -0.703,0.129c-0.872,0 -1.638,-0.559 -1.905,-1.391c-0.163,-0.51 -0.118,-1.052 0.127,-1.526c0.245,-0.474 0.66,-0.826 1.169,-0.989l5.141,-1.834l3.58,-11.83c0.216,-0.825 0.956,-1.417 1.838,-1.455c0.003,0 0.005,0 0.008,0c0.272,0 0.46,0.025 0.646,0.081c1.056,0.313 1.662,1.429 1.35,2.485l-2.768,9.055l4.174,-1.49c0.211,-0.079 0.442,-0.121 0.682,-0.121c0.859,0.014 1.616,0.555 1.891,1.346c0.359,1.043 -0.195,2.184 -1.236,2.545l-6.902,2.463l-2.082,6.65h13.32c0.554,0.008 1.063,0.222 1.44,0.604c0.377,0.382 0.581,0.888 0.573,1.425c-0.016,1.087 -0.912,1.972 -1.999,1.972h-15.979z" fill="#000000" opacity="0.05"></path><path d="M17.587,35.546c-0.481,0 -0.922,-0.223 -1.207,-0.61c-0.286,-0.388 -0.368,-0.873 -0.226,-1.333l2.271,-7.35l-3.372,1.205c-0.227,0.075 -0.381,0.1 -0.535,0.1c-0.654,0 -1.229,-0.42 -1.43,-1.044c-0.122,-0.382 -0.088,-0.788 0.096,-1.144c0.184,-0.356 0.495,-0.62 0.877,-0.742l5.394,-1.925l3.653,-12.071c0.163,-0.622 0.72,-1.071 1.381,-1.1c0.007,0 0.014,0 0.021,0c0.197,0 0.335,0.021 0.469,0.061c0.794,0.235 1.248,1.071 1.014,1.864l-3.057,10.002l5.11,-1.825c0.161,-0.061 0.336,-0.092 0.514,-0.092c0.651,0.011 1.212,0.416 1.418,1.01c0.27,0.782 -0.147,1.638 -0.928,1.908l-7.141,2.549l-2.36,7.537h14.001c0.862,0.012 1.525,0.694 1.514,1.521c-0.012,0.815 -0.685,1.479 -1.499,1.479z" fill="#000000" opacity="0.07"></path><path d="M24.511,10.032c-0.438,0.019 -0.812,0.321 -0.924,0.744l-3.727,12.313l-5.646,2.016c-0.526,0.168 -0.816,0.731 -0.648,1.257c0.168,0.526 0.731,0.816 1.257,0.648c0.021,-0.007 0.042,-0.014 0.062,-0.022l4.312,-1.541l-2.566,8.304c-0.199,0.643 0.282,1.295 0.955,1.295h15.964c0.552,0.008 1.006,-0.434 1.014,-0.986c0.008,-0.552 -0.434,-1.006 -0.986,-1.014c-0.009,0 -0.019,0 -0.028,0h-14.682l2.639,-8.424l7.379,-2.635c0.522,-0.18 0.799,-0.75 0.619,-1.272c-0.137,-0.398 -0.509,-0.667 -0.929,-0.674c-0.123,-0.002 -0.246,0.02 -0.361,0.063l-6.047,2.16l3.346,-10.949c0.157,-0.53 -0.145,-1.086 -0.675,-1.243c-0.107,-0.031 -0.218,-0.045 -0.328,-0.04z" fill="#ffffff"></path></g></g></svg>